<mxfile host="app.diagrams.net" modified="2023-10-02T20:02:36.258Z" agent="Mozilla/5.0 (Windows NT 10.0; Win64; x64) AppleWebKit/537.36 (KHTML, like Gecko) Chrome/117.0.0.0 Safari/537.36" etag="IbB5eUpR884ROMm2l0uv" version="22.0.0" type="device">
  <diagram id="HDGeu96EwJTAYUVn2mI9" name="Page-1">
    <mxGraphModel dx="1434" dy="750" grid="1" gridSize="10" guides="1" tooltips="1" connect="1" arrows="1" fold="1" page="1" pageScale="1" pageWidth="850" pageHeight="1100" math="0" shadow="0">
      <root>
        <mxCell id="0" />
        <mxCell id="1" parent="0" />
        <mxCell id="SC3UIt4IJOYI4lEojMen-4" value="TX_DATA" style="text;html=1;strokeColor=none;fillColor=none;align=center;verticalAlign=middle;whiteSpace=wrap;rounded=0;" parent="1" vertex="1">
          <mxGeometry x="90" y="240" width="60" height="30" as="geometry" />
        </mxCell>
        <mxCell id="SC3UIt4IJOYI4lEojMen-5" value="" style="endArrow=classic;html=1;rounded=0;strokeWidth=1;" parent="1" edge="1">
          <mxGeometry width="50" height="50" relative="1" as="geometry">
            <mxPoint x="240" y="200" as="sourcePoint" />
            <mxPoint x="240" y="250" as="targetPoint" />
          </mxGeometry>
        </mxCell>
        <mxCell id="SC3UIt4IJOYI4lEojMen-30" style="edgeStyle=orthogonalEdgeStyle;rounded=0;orthogonalLoop=1;jettySize=auto;html=1;entryX=0;entryY=0.5;entryDx=0;entryDy=0;strokeWidth=1;" parent="1" source="SC3UIt4IJOYI4lEojMen-8" target="SC3UIt4IJOYI4lEojMen-9" edge="1">
          <mxGeometry relative="1" as="geometry" />
        </mxCell>
        <mxCell id="SC3UIt4IJOYI4lEojMen-32" style="edgeStyle=orthogonalEdgeStyle;rounded=0;orthogonalLoop=1;jettySize=auto;html=1;entryX=0;entryY=0.5;entryDx=0;entryDy=0;strokeWidth=1;" parent="1" source="SC3UIt4IJOYI4lEojMen-8" target="SC3UIt4IJOYI4lEojMen-15" edge="1">
          <mxGeometry relative="1" as="geometry" />
        </mxCell>
        <mxCell id="SC3UIt4IJOYI4lEojMen-8" value="Buffer" style="rounded=0;whiteSpace=wrap;html=1;" parent="1" vertex="1">
          <mxGeometry x="280" y="260" width="80" height="40" as="geometry" />
        </mxCell>
        <mxCell id="SC3UIt4IJOYI4lEojMen-26" style="edgeStyle=orthogonalEdgeStyle;rounded=0;orthogonalLoop=1;jettySize=auto;html=1;entryX=0.5;entryY=0;entryDx=0;entryDy=0;strokeWidth=1;" parent="1" source="SC3UIt4IJOYI4lEojMen-9" target="SC3UIt4IJOYI4lEojMen-24" edge="1">
          <mxGeometry relative="1" as="geometry" />
        </mxCell>
        <mxCell id="SC3UIt4IJOYI4lEojMen-9" value="" style="shape=sumEllipse;perimeter=ellipsePerimeter;whiteSpace=wrap;html=1;backgroundOutline=1;" parent="1" vertex="1">
          <mxGeometry x="440" y="80" width="80" height="80" as="geometry" />
        </mxCell>
        <mxCell id="SC3UIt4IJOYI4lEojMen-17" style="edgeStyle=orthogonalEdgeStyle;rounded=0;orthogonalLoop=1;jettySize=auto;html=1;entryX=0.5;entryY=1;entryDx=0;entryDy=0;strokeWidth=1;" parent="1" source="SC3UIt4IJOYI4lEojMen-10" target="SC3UIt4IJOYI4lEojMen-9" edge="1">
          <mxGeometry relative="1" as="geometry" />
        </mxCell>
        <mxCell id="SC3UIt4IJOYI4lEojMen-18" style="edgeStyle=orthogonalEdgeStyle;rounded=0;orthogonalLoop=1;jettySize=auto;html=1;exitX=0;exitY=0.5;exitDx=0;exitDy=0;strokeWidth=1;" parent="1" source="SC3UIt4IJOYI4lEojMen-10" target="SC3UIt4IJOYI4lEojMen-11" edge="1">
          <mxGeometry relative="1" as="geometry" />
        </mxCell>
        <mxCell id="SC3UIt4IJOYI4lEojMen-10" value="Carrier&lt;br&gt;(Local oscillator)" style="rounded=0;whiteSpace=wrap;html=1;" parent="1" vertex="1">
          <mxGeometry x="530" y="180" width="100" height="40" as="geometry" />
        </mxCell>
        <mxCell id="SC3UIt4IJOYI4lEojMen-19" style="edgeStyle=orthogonalEdgeStyle;rounded=0;orthogonalLoop=1;jettySize=auto;html=1;exitX=0.5;exitY=1;exitDx=0;exitDy=0;entryX=0.5;entryY=0;entryDx=0;entryDy=0;strokeWidth=1;" parent="1" source="SC3UIt4IJOYI4lEojMen-11" target="SC3UIt4IJOYI4lEojMen-15" edge="1">
          <mxGeometry relative="1" as="geometry" />
        </mxCell>
        <mxCell id="SC3UIt4IJOYI4lEojMen-25" style="edgeStyle=orthogonalEdgeStyle;rounded=0;orthogonalLoop=1;jettySize=auto;html=1;entryX=0.5;entryY=1;entryDx=0;entryDy=0;strokeWidth=1;" parent="1" source="SC3UIt4IJOYI4lEojMen-15" target="SC3UIt4IJOYI4lEojMen-24" edge="1">
          <mxGeometry relative="1" as="geometry" />
        </mxCell>
        <mxCell id="SC3UIt4IJOYI4lEojMen-15" value="" style="shape=sumEllipse;perimeter=ellipsePerimeter;whiteSpace=wrap;html=1;backgroundOutline=1;" parent="1" vertex="1">
          <mxGeometry x="440" y="400" width="80" height="80" as="geometry" />
        </mxCell>
        <mxCell id="SC3UIt4IJOYI4lEojMen-20" value="Phase shift" style="text;html=1;strokeColor=none;fillColor=none;align=center;verticalAlign=middle;whiteSpace=wrap;rounded=0;" parent="1" vertex="1">
          <mxGeometry x="510" y="320" width="60" height="30" as="geometry" />
        </mxCell>
        <mxCell id="SC3UIt4IJOYI4lEojMen-21" value="sin()" style="text;html=1;strokeColor=none;fillColor=none;align=center;verticalAlign=middle;whiteSpace=wrap;rounded=0;" parent="1" vertex="1">
          <mxGeometry x="490" y="380" width="60" height="30" as="geometry" />
        </mxCell>
        <mxCell id="SC3UIt4IJOYI4lEojMen-22" value="cos()" style="text;html=1;strokeColor=none;fillColor=none;align=center;verticalAlign=middle;whiteSpace=wrap;rounded=0;" parent="1" vertex="1">
          <mxGeometry x="490" y="150" width="60" height="30" as="geometry" />
        </mxCell>
        <mxCell id="SC3UIt4IJOYI4lEojMen-35" style="edgeStyle=orthogonalEdgeStyle;rounded=0;orthogonalLoop=1;jettySize=auto;html=1;strokeWidth=1;" parent="1" source="SC3UIt4IJOYI4lEojMen-24" edge="1">
          <mxGeometry relative="1" as="geometry">
            <mxPoint x="760" y="280" as="targetPoint" />
          </mxGeometry>
        </mxCell>
        <mxCell id="SC3UIt4IJOYI4lEojMen-24" value="" style="shape=orEllipse;perimeter=ellipsePerimeter;whiteSpace=wrap;html=1;backgroundOutline=1;" parent="1" vertex="1">
          <mxGeometry x="640" y="240" width="80" height="80" as="geometry" />
        </mxCell>
        <mxCell id="SC3UIt4IJOYI4lEojMen-27" value="-" style="text;html=1;strokeColor=none;fillColor=none;align=center;verticalAlign=middle;whiteSpace=wrap;rounded=0;" parent="1" vertex="1">
          <mxGeometry x="640" y="320" width="60" height="30" as="geometry" />
        </mxCell>
        <mxCell id="SC3UIt4IJOYI4lEojMen-28" value="+" style="text;html=1;strokeColor=none;fillColor=none;align=center;verticalAlign=middle;whiteSpace=wrap;rounded=0;" parent="1" vertex="1">
          <mxGeometry x="640" y="210" width="60" height="30" as="geometry" />
        </mxCell>
        <mxCell id="SC3UIt4IJOYI4lEojMen-40" value="modulated_signal" style="text;html=1;strokeColor=none;fillColor=none;align=center;verticalAlign=middle;whiteSpace=wrap;rounded=0;" parent="1" vertex="1">
          <mxGeometry x="1050" y="240" width="60" height="30" as="geometry" />
        </mxCell>
        <mxCell id="0S451hwFovMWe3IVmGFd-1" value="" style="group" parent="1" vertex="1" connectable="0">
          <mxGeometry x="440" y="240" width="80" height="80" as="geometry" />
        </mxCell>
        <mxCell id="SC3UIt4IJOYI4lEojMen-11" value="" style="whiteSpace=wrap;html=1;aspect=fixed;" parent="0S451hwFovMWe3IVmGFd-1" vertex="1">
          <mxGeometry width="80" height="80" as="geometry" />
        </mxCell>
        <mxCell id="SC3UIt4IJOYI4lEojMen-12" value="" style="ellipse;whiteSpace=wrap;html=1;aspect=fixed;" parent="0S451hwFovMWe3IVmGFd-1" vertex="1">
          <mxGeometry x="8.75" y="8.75" width="62.5" height="62.5" as="geometry" />
        </mxCell>
        <mxCell id="SC3UIt4IJOYI4lEojMen-14" value="" style="endArrow=none;html=1;rounded=0;strokeWidth=1;" parent="0S451hwFovMWe3IVmGFd-1" edge="1">
          <mxGeometry width="50" height="50" relative="1" as="geometry">
            <mxPoint x="15" y="65" as="sourcePoint" />
            <mxPoint x="65" y="15" as="targetPoint" />
          </mxGeometry>
        </mxCell>
        <mxCell id="0S451hwFovMWe3IVmGFd-2" value="" style="group" parent="1" vertex="1" connectable="0">
          <mxGeometry x="200" y="250" width="80" height="30" as="geometry" />
        </mxCell>
        <mxCell id="SC3UIt4IJOYI4lEojMen-2" value="" style="endArrow=none;html=1;rounded=0;strokeWidth=2;" parent="0S451hwFovMWe3IVmGFd-2" edge="1">
          <mxGeometry width="50" height="50" relative="1" as="geometry">
            <mxPoint y="30" as="sourcePoint" />
            <mxPoint x="40" as="targetPoint" />
          </mxGeometry>
        </mxCell>
        <mxCell id="SC3UIt4IJOYI4lEojMen-3" value="" style="endArrow=none;html=1;rounded=0;strokeWidth=2;" parent="0S451hwFovMWe3IVmGFd-2" edge="1">
          <mxGeometry width="50" height="50" relative="1" as="geometry">
            <mxPoint x="40" y="30" as="sourcePoint" />
            <mxPoint x="80" y="30" as="targetPoint" />
          </mxGeometry>
        </mxCell>
        <mxCell id="0S451hwFovMWe3IVmGFd-11" value="" style="group" parent="1" vertex="1" connectable="0">
          <mxGeometry x="760" y="240" width="80" height="80" as="geometry" />
        </mxCell>
        <mxCell id="0S451hwFovMWe3IVmGFd-8" value="" style="rounded=0;whiteSpace=wrap;html=1;container=0;" parent="0S451hwFovMWe3IVmGFd-11" vertex="1">
          <mxGeometry width="80" height="80" as="geometry" />
        </mxCell>
        <mxCell id="0S451hwFovMWe3IVmGFd-9" value="" style="endArrow=none;html=1;rounded=0;entryX=0.875;entryY=0.875;entryDx=0;entryDy=0;exitX=0.125;exitY=0.875;exitDx=0;exitDy=0;exitPerimeter=0;entryPerimeter=0;" parent="0S451hwFovMWe3IVmGFd-11" source="0S451hwFovMWe3IVmGFd-8" target="0S451hwFovMWe3IVmGFd-8" edge="1">
          <mxGeometry width="50" height="50" relative="1" as="geometry">
            <mxPoint y="80" as="sourcePoint" />
            <mxPoint x="50" y="30" as="targetPoint" />
            <Array as="points">
              <mxPoint x="20" y="40" />
              <mxPoint x="60" y="40" />
            </Array>
          </mxGeometry>
        </mxCell>
        <mxCell id="0S451hwFovMWe3IVmGFd-12" value="Root-raised-cosine (RRC) bandpass filter" style="text;html=1;strokeColor=none;fillColor=none;align=center;verticalAlign=middle;whiteSpace=wrap;rounded=0;" parent="1" vertex="1">
          <mxGeometry x="725" y="330" width="150" height="30" as="geometry" />
        </mxCell>
        <mxCell id="0S451hwFovMWe3IVmGFd-13" value="Symbol rate" style="text;html=1;strokeColor=none;fillColor=none;align=center;verticalAlign=middle;whiteSpace=wrap;rounded=0;" parent="1" vertex="1">
          <mxGeometry x="210" y="165" width="60" height="30" as="geometry" />
        </mxCell>
        <mxCell id="0S451hwFovMWe3IVmGFd-15" value="" style="endArrow=none;html=1;rounded=0;" parent="1" edge="1">
          <mxGeometry width="50" height="50" relative="1" as="geometry">
            <mxPoint x="120" y="280" as="sourcePoint" />
            <mxPoint x="200" y="280" as="targetPoint" />
          </mxGeometry>
        </mxCell>
        <mxCell id="0S451hwFovMWe3IVmGFd-16" value="I" style="text;html=1;strokeColor=none;fillColor=none;align=center;verticalAlign=middle;whiteSpace=wrap;rounded=0;" parent="1" vertex="1">
          <mxGeometry x="450" y="50" width="60" height="30" as="geometry" />
        </mxCell>
        <mxCell id="0S451hwFovMWe3IVmGFd-17" value="Q" style="text;html=1;strokeColor=none;fillColor=none;align=center;verticalAlign=middle;whiteSpace=wrap;rounded=0;" parent="1" vertex="1">
          <mxGeometry x="450" y="480" width="60" height="30" as="geometry" />
        </mxCell>
        <mxCell id="qyJDf3u-ShKXb5SuKvfy-1" value="https://github.com/F33RNI/QPSK-Demo&lt;br&gt;&lt;br&gt;Drawn by Fern Lane, 2023" style="text;html=1;strokeColor=none;fillColor=none;align=center;verticalAlign=middle;whiteSpace=wrap;rounded=0;strokeWidth=1;fontSize=14;fontStyle=0" parent="1" vertex="1">
          <mxGeometry x="770" y="425" width="270" height="30" as="geometry" />
        </mxCell>
        <mxCell id="5qJrb0qti--77SUlbmjx-4" style="edgeStyle=orthogonalEdgeStyle;rounded=0;orthogonalLoop=1;jettySize=auto;html=1;entryX=0.5;entryY=0;entryDx=0;entryDy=0;" edge="1" parent="1" source="5qJrb0qti--77SUlbmjx-1" target="5qJrb0qti--77SUlbmjx-2">
          <mxGeometry relative="1" as="geometry" />
        </mxCell>
        <mxCell id="5qJrb0qti--77SUlbmjx-1" value="Automatic gain control (AGC)" style="rounded=0;whiteSpace=wrap;html=1;" vertex="1" parent="1">
          <mxGeometry x="920" y="120" width="80" height="80" as="geometry" />
        </mxCell>
        <mxCell id="5qJrb0qti--77SUlbmjx-6" style="edgeStyle=orthogonalEdgeStyle;rounded=0;orthogonalLoop=1;jettySize=auto;html=1;" edge="1" parent="1" source="5qJrb0qti--77SUlbmjx-2">
          <mxGeometry relative="1" as="geometry">
            <mxPoint x="1080" y="279.9999999999999" as="targetPoint" />
          </mxGeometry>
        </mxCell>
        <mxCell id="5qJrb0qti--77SUlbmjx-2" value="" style="shape=sumEllipse;perimeter=ellipsePerimeter;whiteSpace=wrap;html=1;backgroundOutline=1;" vertex="1" parent="1">
          <mxGeometry x="920" y="240" width="80" height="80" as="geometry" />
        </mxCell>
        <mxCell id="5qJrb0qti--77SUlbmjx-3" style="edgeStyle=orthogonalEdgeStyle;rounded=0;orthogonalLoop=1;jettySize=auto;html=1;entryX=0;entryY=0.5;entryDx=0;entryDy=0;" edge="1" parent="1" source="0S451hwFovMWe3IVmGFd-8" target="5qJrb0qti--77SUlbmjx-2">
          <mxGeometry relative="1" as="geometry" />
        </mxCell>
        <mxCell id="5qJrb0qti--77SUlbmjx-5" style="edgeStyle=orthogonalEdgeStyle;rounded=0;orthogonalLoop=1;jettySize=auto;html=1;exitX=1;exitY=0.5;exitDx=0;exitDy=0;entryX=0;entryY=0.5;entryDx=0;entryDy=0;" edge="1" parent="1" source="0S451hwFovMWe3IVmGFd-8" target="5qJrb0qti--77SUlbmjx-1">
          <mxGeometry relative="1" as="geometry" />
        </mxCell>
      </root>
    </mxGraphModel>
  </diagram>
</mxfile>
